<?xml version="1.0" encoding="utf-8"?>
<!-- Generator: Adobe Illustrator 16.0.0, SVG Export Plug-In . SVG Version: 6.00 Build 0)  -->
<!DOCTYPE svg PUBLIC "-//W3C//DTD SVG 1.1//EN" "http://www.w3.org/Graphics/SVG/1.1/DTD/svg11.dtd">
<svg version="1.1" id="Layer_1" xmlns="http://www.w3.org/2000/svg" xmlns:xlink="http://www.w3.org/1999/xlink" x="0px" y="0px"
	 width="294px" height="205.502px" viewBox="48.65 -1.152 294 205.502" enable-background="new 48.65 -1.152 294 205.502"
	 xml:space="preserve">
<g>
	<path fill="#FFFFFF" d="M332.154,92.744c-3.357-19.946-18.084-35.885-37.191-41.478c0.279-1.958,0.561-3.915,0.561-5.872l0,0
		c0-20.599-16.686-37.283-37.285-37.283c-10.439,0-19.76,4.288-26.564,11.185c-1.863-4.94-6.523-8.482-12.115-8.482
		c-7.178,0-13.051,5.872-13.051,13.049c0,7.178,4.941,10.347,15.287,15.286c1.398,0.653,2.797,1.398,4.102,2.144
		c0.838,0.466,1.584,0.932,2.424,1.398c0.559,0.373,1.211,0.745,1.77,1.118c0.373,0.187,0.652,0.466,1.025,0.652
		c3.17,2.144,6.059,4.474,8.855,6.991c0.186,0.093,0.279,0.279,0.467,0.373c1.117,1.025,2.236,2.144,3.262,3.356
		c0.279,0.279,0.559,0.652,0.838,0.932c1.213,1.305,2.33,2.703,3.355,4.101c8.762,11.558,13.982,26.005,13.982,41.571
		c0,15.565-5.314,30.013-13.982,41.571c-1.025,1.398-2.236,2.703-3.355,4.102c-0.279,0.279-0.559,0.652-0.838,0.932
		c-1.025,1.117-2.145,2.238-3.262,3.355c-0.188,0.092-0.281,0.279-0.467,0.373c-2.797,2.516-5.686,4.939-8.855,6.99
		c-0.373,0.186-0.652,0.467-1.025,0.652c-0.559,0.373-1.117,0.746-1.77,1.119c-0.746,0.467-1.586,0.932-2.424,1.398
		c-1.398,0.744-2.703,1.49-4.102,2.143c-10.439,4.848-15.287,8.016-15.287,15.287c0,7.176,5.873,13.049,13.051,13.049
		c5.592,0,10.252-3.543,12.115-8.482c6.805,6.898,16.219,11.186,26.564,11.186c20.6,0,37.285-16.686,37.285-37.283l0,0
		c0-2.051-0.281-3.916-0.561-5.873c19.107-5.592,33.742-21.624,37.191-41.477c0.465-2.889,0.744-5.778,0.744-8.761
		C332.898,98.523,332.619,95.54,332.154,92.744z"/>
	<path fill="#FFFFFF" d="M169.505,164.047c-1.397-0.652-2.796-1.398-4.101-2.143c-0.84-0.467-1.584-0.932-2.424-1.398
		c-0.559-0.373-1.211-0.746-1.771-1.119c-0.373-0.186-0.653-0.465-1.026-0.652c-3.168-2.049-6.059-4.475-8.854-6.99
		c-0.187-0.094-0.28-0.279-0.467-0.373c-1.117-1.119-2.236-2.143-3.262-3.355c-0.279-0.279-0.559-0.652-0.839-0.932
		c-1.212-1.307-2.33-2.703-3.356-4.102c-8.76-11.558-13.98-26.005-13.98-41.57c0-15.566,5.312-30.013,13.98-41.571
		c1.026-1.398,2.238-2.703,3.356-4.101c0.28-0.28,0.56-0.652,0.839-0.932c1.025-1.119,2.145-2.237,3.262-3.355
		c0.187-0.093,0.28-0.28,0.467-0.373c2.795-2.517,5.686-4.94,8.854-6.991c0.373-0.187,0.653-0.466,1.026-0.653
		c0.56-0.373,1.118-0.745,1.771-1.119c0.746-0.466,1.584-0.932,2.424-1.398c1.398-0.746,2.703-1.491,4.101-2.144
		c10.439-4.847,15.286-8.016,15.286-15.286c0-7.177-5.871-13.049-13.049-13.049c-5.592,0-10.253,3.542-12.117,8.482
		c-6.804-6.898-16.219-11.185-26.564-11.185c-20.598,0-37.283,16.684-37.283,37.283l0,0c0,2.05,0.28,3.915,0.56,5.872
		c-19.108,5.593-33.741,21.625-37.189,41.478c-0.466,2.89-0.745,5.779-0.745,8.762c0,2.983,0.279,5.872,0.745,8.761
		c3.354,19.947,18.081,35.884,37.189,41.478c-0.279,1.957-0.56,3.916-0.56,5.873l0,0c0,20.598,16.686,37.283,37.283,37.283
		c10.439,0,19.761-4.287,26.564-11.186c1.864,4.939,6.525,8.48,12.117,8.48c7.178,0,13.049-5.871,13.049-13.049
		C184.791,172.065,179.944,168.895,169.505,164.047z"/>
	<path fill="#FFFFFF" d="M236.336,101.505c0-22.462-18.176-40.638-40.639-40.638c-22.464,0-40.64,18.176-40.64,40.638
		c0,22.463,18.176,40.638,40.64,40.638C218.16,142.143,236.336,123.969,236.336,101.505z"/>
</g>
</svg>
