<?xml version="1.0" encoding="utf-8"?>
<!-- Generator: Adobe Illustrator 16.0.0, SVG Export Plug-In . SVG Version: 6.00 Build 0)  -->
<!DOCTYPE svg PUBLIC "-//W3C//DTD SVG 1.1//EN" "http://www.w3.org/Graphics/SVG/1.1/DTD/svg11.dtd">
<svg version="1.1" id="Layer_1" xmlns="http://www.w3.org/2000/svg" xmlns:xlink="http://www.w3.org/1999/xlink" x="0px" y="0px"
	 width="393.961px" height="271.42px" viewBox="-0.147 -1.152 393.961 271.42"
	 enable-background="new -0.147 -1.152 393.961 271.42" xml:space="preserve">
<g>
	<g>
		<path fill="#FFFFFF" d="M333.338,93.733c-3.357-19.946-18.084-35.885-37.191-41.478c0.279-1.958,0.561-3.915,0.561-5.872l0,0
			c0-20.599-16.686-37.283-37.285-37.283c-10.439,0-19.76,4.288-26.564,11.185c-1.863-4.94-6.523-8.482-12.115-8.482
			c-7.178,0-13.051,5.872-13.051,13.049c0,7.178,4.941,10.347,15.287,15.286c1.398,0.653,2.797,1.398,4.102,2.144
			c0.838,0.466,1.584,0.932,2.424,1.398c0.559,0.373,1.211,0.745,1.77,1.118c0.373,0.187,0.652,0.466,1.025,0.652
			c3.17,2.144,6.059,4.474,8.855,6.991c0.186,0.093,0.279,0.279,0.467,0.373c1.117,1.025,2.236,2.144,3.262,3.356
			c0.279,0.279,0.559,0.652,0.838,0.932c1.213,1.305,2.33,2.703,3.355,4.101c8.762,11.558,13.982,26.005,13.982,41.571
			c0,15.565-5.314,30.013-13.982,41.57c-1.025,1.398-2.236,2.703-3.355,4.102c-0.279,0.279-0.559,0.652-0.838,0.933
			c-1.025,1.117-2.145,2.237-3.262,3.354c-0.188,0.093-0.281,0.28-0.467,0.373c-2.797,2.517-5.686,4.94-8.855,6.991
			c-0.373,0.186-0.652,0.466-1.025,0.651c-0.559,0.373-1.117,0.746-1.77,1.12c-0.746,0.466-1.586,0.932-2.424,1.397
			c-1.398,0.745-2.703,1.491-4.102,2.143c-10.439,4.849-15.287,8.017-15.287,15.287c0,7.177,5.873,13.049,13.051,13.049
			c5.592,0,10.252-3.542,12.115-8.481c6.805,6.897,16.219,11.185,26.564,11.185c20.6,0,37.285-16.685,37.285-37.283l0,0
			c0-2.051-0.281-3.915-0.561-5.873c19.107-5.592,33.742-21.623,37.191-41.477c0.465-2.889,0.744-5.778,0.744-8.761
			C334.082,99.512,333.802,96.529,333.338,93.733z"/>
		<path fill="#FFFFFF" d="M170.688,165.037c-1.397-0.652-2.796-1.398-4.101-2.144c-0.84-0.466-1.584-0.932-2.424-1.398
			c-0.559-0.373-1.211-0.746-1.771-1.118c-0.373-0.187-0.653-0.466-1.026-0.652c-3.168-2.05-6.059-4.475-8.854-6.991
			c-0.187-0.093-0.28-0.279-0.467-0.373c-1.117-1.118-2.236-2.143-3.262-3.355c-0.279-0.279-0.559-0.651-0.839-0.932
			c-1.212-1.306-2.33-2.703-3.356-4.102c-8.76-11.558-13.98-26.004-13.98-41.57c0-15.566,5.312-30.013,13.98-41.571
			c1.026-1.398,2.238-2.703,3.356-4.101c0.28-0.28,0.56-0.652,0.839-0.932c1.025-1.119,2.145-2.237,3.262-3.355
			c0.187-0.093,0.28-0.28,0.467-0.373c2.795-2.517,5.686-4.94,8.854-6.991c0.373-0.187,0.653-0.466,1.026-0.653
			c0.56-0.373,1.118-0.745,1.771-1.119c0.746-0.466,1.584-0.932,2.424-1.398c1.398-0.746,2.703-1.491,4.101-2.144
			c10.439-4.847,15.286-8.016,15.286-15.286c0-7.177-5.871-13.049-13.049-13.049c-5.592,0-10.253,3.542-12.117,8.482
			c-6.804-6.898-16.219-11.185-26.564-11.185c-20.598,0-37.283,16.684-37.283,37.283l0,0c0,2.05,0.28,3.915,0.56,5.872
			C78.412,57.475,63.779,73.507,60.331,93.36c-0.466,2.89-0.745,5.779-0.745,8.762c0,2.983,0.279,5.872,0.745,8.761
			c3.354,19.947,18.081,35.884,37.189,41.477c-0.279,1.958-0.56,3.916-0.56,5.873l0,0c0,20.599,16.686,37.283,37.283,37.283
			c10.439,0,19.761-4.287,26.564-11.186c1.864,4.94,6.525,8.481,12.117,8.481c7.178,0,13.049-5.871,13.049-13.049
			C185.974,173.053,181.128,169.883,170.688,165.037z"/>
		<path fill="#FFFFFF" d="M237.519,102.494c0-22.462-18.176-40.638-40.639-40.638c-22.464,0-40.64,18.176-40.64,40.638
			c0,22.463,18.176,40.638,40.64,40.638C219.344,143.132,237.519,124.958,237.519,102.494z"/>
	</g>
	<g>
		<path fill="#FFFFFF" d="M40.199,255.915c0,0.56-0.281,0.932-0.653,1.211c-2.796,2.145-6.338,3.263-9.88,3.263
			c-8.762,0-16.125-7.177-16.125-16.031c0-8.948,7.363-16.312,16.125-16.312c3.542,0,7.176,1.118,9.88,3.448
			c1.118,0.932,0.466,2.517-0.839,2.517c-0.279,0-0.652-0.094-0.839-0.279c-2.237-1.679-5.22-2.889-8.202-2.889
			c-7.271,0-13.329,6.059-13.329,13.515c0,7.27,6.058,13.235,13.329,13.235c3.076,0,5.965-0.933,8.202-2.704
			C38.707,254.237,40.199,254.61,40.199,255.915z"/>
		<path fill="#FFFFFF" d="M48.773,219.097c0-0.279-0.094-0.652-0.467-0.838c-1.025-0.561-1.117-1.12-1.117-1.492
			c0-1.492,1.49-1.492,1.49-1.492c0.84,0,2.89,0.84,2.89,3.822v37.189c0,0.28,0.094,0.653,0.466,0.839
			c1.025,0.56,1.119,1.119,1.119,1.491c0,1.492-1.491,1.492-1.491,1.492c-0.839,0-2.89-0.839-2.89-3.822V219.097z"/>
		<path fill="#FFFFFF" d="M60.144,244.263c0-8.948,7.27-16.218,16.219-16.218c8.947,0,16.125,7.363,16.125,16.218
			c0,8.948-7.178,16.125-16.125,16.125C67.414,260.388,60.144,253.211,60.144,244.263z M62.94,244.263
			c0,7.363,6.059,13.329,13.423,13.329c7.362,0,13.328-5.966,13.328-13.329c0-7.362-5.966-13.421-13.328-13.421
			C68.999,230.842,62.94,236.901,62.94,244.263z"/>
		<path fill="#FFFFFF" d="M123.619,254.237c-1.678,3.636-6.338,5.872-10.066,5.872c-9.041,0-13.701-4.754-13.701-13.795v-14.262
			c0-0.278-0.094-0.651-0.467-0.838c-1.025-0.56-1.118-1.119-1.118-1.492c0-1.491,1.491-1.491,1.491-1.491
			c0.84,0,2.891,0.84,2.891,3.821v14.262c0,7.457,3.541,11.092,10.904,11.092c5.686,0,10.066-4.194,10.066-9.786v-15.567
			c0-2.981,2.051-3.821,2.889-3.821c0,0,1.492,0,1.492,1.491c0,0.28-0.094,0.933-1.118,1.492c-0.28,0.187-0.466,0.56-0.466,0.838
			v24.234c0,0.28,0.092,0.653,0.466,0.839c1.024,0.56,1.118,1.119,1.118,1.491c0,1.492-1.492,1.492-1.492,1.492
			c-0.838,0-2.889-0.839-2.889-3.822V254.237z"/>
		<path fill="#FFFFFF" d="M160.622,219.097c0-2.982,2.051-3.822,2.89-3.822c0,0,1.491,0,1.491,1.492
			c0,0.279-0.093,0.932-1.118,1.492c-0.279,0.186-0.467,0.559-0.467,0.838v37.189c0,0.28,0.094,0.653,0.467,0.839
			c1.025,0.56,1.118,1.119,1.118,1.491c0,1.492-1.491,1.492-1.491,1.492c-0.839,0-2.89-0.839-2.89-3.822v-3.448
			c-2.516,5.593-7.642,7.271-11.837,7.271c-8.574,0-14.447-7.551-14.447-16.218c0-8.296,6.152-15.566,14.447-15.566
			c4.66,0,8.668,1.397,11.837,6.524V219.097z M160.622,243.238c0-6.524-5.032-12.21-11.743-12.21
			c-7.178,0-11.744,5.966-11.744,12.676c0,6.618,4.474,13.422,11.744,13.422c7.456,0,11.743-6.99,11.743-13.515V243.238z"/>
		<path fill="#FFFFFF" d="M198.838,233.731c0,1.771-1.398,3.076-3.076,3.076c-0.746,0-1.305-0.188-1.863-0.561
			c-1.771-1.397-4.009-2.33-6.06-2.33c-5.593,0.094-10.253,4.754-10.253,10.253c0,5.407,4.568,10.16,10.16,10.16
			c2.051,0,4.287-0.839,6.152-2.237c0.559-0.372,1.117-0.559,1.863-0.559c1.678,0,3.076,1.397,3.076,3.076
			c0,0.933-0.559,1.677-1.305,2.33c-2.703,2.236-6.244,3.355-9.694,3.355c-9.041,0-16.218-7.178-16.218-16.126
			c0-8.947,7.271-16.218,16.218-16.218c3.636,0,7.085,1.119,9.788,3.356C198.371,231.959,198.838,232.799,198.838,233.731z"/>
		<path fill="#FFFFFF" d="M223.724,256.287c-0.652,0.932-2.889,4.102-8.109,4.102c-6.152,0-12.023-4.102-12.023-10.812
			c0-7.457,5.965-10.439,12.303-10.439c2.609,0,5.221,0.652,7.551,1.771c0-6.244-2.703-7.177-6.246-7.177
			c-4.193,0-6.15,0.839-6.15,0.839c-1.865,0.652-3.822-0.56-3.822-2.518c0-1.49,0.932-2.608,2.236-2.981
			c2.33-0.652,4.754-1.119,7.551-1.119c8.482,0,12.676,4.008,12.676,10.906v14.633c0,0.653,0.279,0.932,0.559,1.119
			c0,0,1.027,0.466,1.027,2.33s-1.307,3.075-3.17,3.075C225.681,260.109,223.818,258.71,223.724,256.287z M217.572,244.077
			c-3.729,0-7.83,1.119-7.83,5.593c0,3.262,3.076,4.847,5.967,4.847c3.635,0,7.736-2.236,7.922-6.152v-2.423
			C221.488,244.45,218.877,244.077,217.572,244.077z"/>
		<path fill="#FFFFFF" d="M260.728,242.399c0-5.22-3.264-8.295-8.297-8.295c-4.66,0-8.295,4.007-8.295,8.016v13.329
			c0,2.796-1.863,4.66-4.566,4.66c-1.678,0-3.17-1.212-3.17-3.076s1.119-2.423,1.119-2.423c0.279-0.188,0.559-0.373,0.559-1.025
			v-18.735c0-0.652-0.279-0.839-0.559-1.025c0,0-1.119-0.559-1.119-2.423s1.492-3.076,3.17-3.076c2.516,0,4.287,1.678,4.566,4.101
			c1.957-2.423,5.779-4.38,8.762-4.38c9.881,0,13.98,4.754,13.98,14.819v10.72c0,0.652,0.281,0.838,0.561,1.025
			c0,0,1.117,0.559,1.117,2.423s-1.49,3.076-3.168,3.076c-2.703,0-4.566-1.864-4.566-4.66v-13.05H260.728z"/>
		<path fill="#FFFFFF" d="M298.57,242.399c0-5.22-3.262-8.295-8.295-8.295c-4.66,0-8.297,4.007-8.297,8.016v13.329
			c0,2.796-1.863,4.66-4.566,4.66c-1.678,0-3.17-1.212-3.17-3.076s1.119-2.423,1.119-2.423c0.279-0.188,0.559-0.373,0.559-1.025
			v-18.735c0-0.652-0.279-0.839-0.559-1.025c0,0-1.119-0.559-1.119-2.423s1.492-3.076,3.17-3.076c2.516,0,4.287,1.678,4.566,4.101
			c1.959-2.423,5.779-4.38,8.762-4.38c9.881,0,13.982,4.754,13.982,14.819v10.72c0,0.652,0.279,0.838,0.559,1.025
			c0,0,1.119,0.559,1.119,2.423s-1.492,3.076-3.17,3.076c-2.703,0-4.566-1.864-4.566-4.66v-13.05H298.57z"/>
		<path fill="#FFFFFF" d="M310.781,244.169c0-8.947,7.363-16.218,16.219-16.218c8.947,0,16.217,7.271,16.217,16.218
			c0,8.854-7.27,16.219-16.217,16.219C318.051,260.388,310.781,253.024,310.781,244.169z M316.84,244.169
			c0,5.593,4.566,10.067,10.066,10.067c5.592,0,10.064-4.567,10.064-10.067c0-5.593-4.566-10.065-10.064-10.065
			C321.406,234.104,316.84,238.577,316.84,244.169z"/>
		<path fill="#FFFFFF" d="M372.297,242.399c0-5.22-3.262-8.295-8.295-8.295c-4.66,0-8.295,4.007-8.295,8.016v13.329
			c0,2.796-1.865,4.66-4.568,4.66c-1.678,0-3.168-1.212-3.168-3.076s1.119-2.423,1.119-2.423c0.279-0.188,0.559-0.373,0.559-1.025
			v-18.735c0-0.652-0.279-0.839-0.559-1.025c0,0-1.119-0.559-1.119-2.423s1.49-3.076,3.168-3.076c2.518,0,4.289,1.678,4.568,4.101
			c1.957-2.423,5.779-4.38,8.762-4.38c9.879,0,13.98,4.754,13.98,14.819v10.72c0,0.652,0.279,0.838,0.561,1.025
			c0,0,1.117,0.559,1.117,2.423s-1.492,3.076-3.168,3.076c-2.703,0-4.568-1.864-4.568-4.66v-13.05H372.297z"/>
	</g>
</g>
</svg>
